<svg xmlns="http://www.w3.org/2000/svg" width="15.493" height="15.493" viewBox="0 0 15.493 15.493"><defs><style>.a{fill:#fff;}</style></defs><g transform="translate(0)"><path class="a" d="M162.328,153.494a6.372,6.372,0,0,0-.573-8.914,7.286,7.286,0,0,1-7,9.272l-1.739-.01a6.347,6.347,0,0,0,4.493,1.856l5.918-.03a.454.454,0,0,0,.317-.777Z" transform="translate(-148.386 -140.205)"/><path class="a" d="M6.37,12.74a6.369,6.369,0,1,0-4.819-2.2l-1.415,1.4a.454.454,0,0,0,.317.777ZM3.661,4.115H9.108a.454.454,0,0,1,0,.908H3.661a.454.454,0,0,1,0-.908Zm0,1.816H9.108a.454.454,0,0,1,0,.908H3.661a.454.454,0,0,1,0-.908ZM3.208,8.2a.454.454,0,0,1,.454-.454H9.108a.454.454,0,0,1,0,.908H3.661A.454.454,0,0,1,3.208,8.2Z" transform="translate(0)"/></g></svg>